<svg width="56" height="23" viewBox="0 0 56 23" fill="none" xmlns="http://www.w3.org/2000/svg">
<path d="M6.24 22.1279V20.1359C2.904 19.8959 0.768 17.9519 0.696 15.0239H3.768C3.792 16.3919 4.68 17.2559 6.24 17.4479V12.3359L5.472 12.1679C2.448 11.5199 0.936 9.8399 0.936 7.1999C0.936 4.3919 3.048 2.3759 6.24 2.0399V-0.000100136H8.088V2.0399C11.112 2.3519 12.984 4.2479 13.08 7.1279H10.104C10.056 5.8319 9.336 4.9919 8.088 4.7279V9.8879L8.904 10.0799C11.976 10.7519 13.368 12.2399 13.368 14.7839C13.368 17.7119 11.304 19.7279 8.088 20.0879V22.1279H6.24ZM6.144 9.4559L6.24 9.4799V4.7039C4.8 4.9439 3.936 5.8079 3.936 7.1039C3.936 8.3759 4.608 9.1199 6.144 9.4559ZM8.256 12.7679L8.088 12.7199V17.3999C9.528 17.1119 10.392 16.2719 10.392 15.0479C10.392 13.8239 9.696 13.0799 8.256 12.7679ZM27.4751 19.8239L15.3071 19.8479V17.5439L21.0431 12.6959C23.4191 10.6799 24.2111 9.5279 24.2111 7.8479C24.2111 5.8559 23.1311 4.7279 21.2831 4.7279C19.3631 4.7279 18.1631 6.0719 18.1391 8.3279H15.0911C15.1151 4.4879 17.5631 1.9919 21.2831 1.9919C25.0271 1.9919 27.3551 4.1279 27.3551 7.6799C27.3551 10.1279 26.0111 11.9759 23.3471 14.2559L20.1791 16.9679H27.4751V19.8239ZM34.716 11.1599H32.58V9.1679L37.092 5.0159H29.796V2.3039H40.932V4.7519L36.66 8.6879C39.348 9.2159 41.436 11.1839 41.436 14.2799C41.436 17.8799 38.628 20.1599 35.076 20.1599C31.644 20.1599 28.98 18.0479 28.98 14.2559H32.004C32.004 16.2719 33.252 17.4239 35.124 17.4239C37.044 17.4239 38.316 16.1759 38.316 14.2319C38.316 12.4559 37.164 11.1599 34.716 11.1599ZM55.1314 19.8239L42.9634 19.8479V17.5439L48.6994 12.6959C51.0754 10.6799 51.8674 9.5279 51.8674 7.8479C51.8674 5.8559 50.7874 4.7279 48.9394 4.7279C47.0194 4.7279 45.8194 6.0719 45.7954 8.3279H42.7474C42.7714 4.4879 45.2194 1.9919 48.9394 1.9919C52.6834 1.9919 55.0114 4.1279 55.0114 7.6799C55.0114 10.1279 53.6674 11.9759 51.0034 14.2559L47.8354 16.9679H55.1314V19.8239Z" fill="black" fill-opacity="0.4"/>
<path d="M0 12.6479H55.9954V13.8479H0V12.6479Z" fill="black" fill-opacity="0.4"/>
</svg>
