<svg width="189" height="32" viewBox="0 0 189 32" fill="none" xmlns="http://www.w3.org/2000/svg">
<path d="M6.24 27.28V25.288C2.904 25.048 0.768 23.104 0.696 20.176H3.768C3.792 21.544 4.68 22.408 6.24 22.6V17.488L5.472 17.32C2.448 16.672 0.936 14.992 0.936 12.352C0.936 9.544 3.048 7.528 6.24 7.192V5.152H8.088V7.192C11.112 7.504 12.984 9.4 13.08 12.28H10.104C10.056 10.984 9.336 10.144 8.088 9.88V15.04L8.904 15.232C11.976 15.904 13.368 17.392 13.368 19.936C13.368 22.864 11.304 24.88 8.088 25.24V27.28H6.24ZM6.144 14.608L6.24 14.632V9.856C4.8 10.096 3.936 10.96 3.936 12.256C3.936 13.528 4.608 14.272 6.144 14.608ZM8.256 17.92L8.088 17.872V22.552C9.528 22.264 10.392 21.424 10.392 20.2C10.392 18.976 9.696 18.232 8.256 17.92ZM18.8591 10.216H15.0191V7.456H21.8111V25H18.8591V10.216ZM29.9816 16.312H27.8456V14.32L32.3576 10.168H25.0616V7.456H36.1976V9.904L31.9256 13.84C34.6136 14.368 36.7016 16.336 36.7016 19.432C36.7016 23.032 33.8936 25.312 30.3416 25.312C26.9096 25.312 24.2456 23.2 24.2456 19.408H27.2696C27.2696 21.424 28.5176 22.576 30.3896 22.576C32.3096 22.576 33.5816 21.328 33.5816 19.384C33.5816 17.608 32.4296 16.312 29.9816 16.312ZM38.4617 16.264C38.4617 10.816 41.3897 7.12 45.8777 7.12C50.3657 7.12 53.3177 10.816 53.3177 16.264C53.3177 21.688 50.5337 25.312 45.8777 25.312C41.2217 25.312 38.4617 21.688 38.4617 16.264ZM41.4857 16.264C41.4857 20.32 43.1177 22.6 45.8777 22.6C48.6617 22.6 50.2937 20.32 50.2937 16.264C50.2937 12.112 48.6617 9.832 45.8777 9.832C43.1177 9.832 41.4857 12.112 41.4857 16.264Z" fill="black"/>
<path d="M71.24 27.28V25.288C67.904 25.048 65.768 23.104 65.696 20.176H68.768C68.792 21.544 69.68 22.408 71.24 22.6V17.488L70.472 17.32C67.448 16.672 65.936 14.992 65.936 12.352C65.936 9.544 68.048 7.528 71.24 7.192V5.152H73.088V7.192C76.112 7.504 77.984 9.4 78.08 12.28H75.104C75.056 10.984 74.336 10.144 73.088 9.88V15.04L73.904 15.232C76.976 15.904 78.368 17.392 78.368 19.936C78.368 22.864 76.304 24.88 73.088 25.24V27.28H71.24ZM71.144 14.608L71.24 14.632V9.856C69.8 10.096 68.936 10.96 68.936 12.256C68.936 13.528 69.608 14.272 71.144 14.608ZM73.256 17.92L73.088 17.872V22.552C74.528 22.264 75.392 21.424 75.392 20.2C75.392 18.976 74.696 18.232 73.256 17.92ZM83.8591 10.216H80.0191V7.456H86.8111V25H83.8591V10.216ZM92.2936 12.616L96.0856 7.456H99.5896L95.3896 13.048C95.8216 12.928 96.2776 12.856 96.7096 12.856C100.334 12.856 102.782 15.4 102.782 18.952C102.782 22.696 99.9976 25.312 96.2536 25.312C92.4616 25.312 89.6296 22.528 89.6296 18.928C89.6296 16.816 90.3256 15.28 92.2936 12.616ZM92.7736 18.952C92.7736 21.088 94.1896 22.576 96.2536 22.576C98.2456 22.576 99.6856 21.088 99.6856 18.952C99.6856 16.84 98.2696 15.376 96.2536 15.376C94.1656 15.376 92.7736 16.84 92.7736 18.952ZM104.68 16.264C104.68 10.816 107.608 7.12 112.096 7.12C116.584 7.12 119.536 10.816 119.536 16.264C119.536 21.688 116.752 25.312 112.096 25.312C107.44 25.312 104.68 21.688 104.68 16.264ZM107.704 16.264C107.704 20.32 109.336 22.6 112.096 22.6C114.88 22.6 116.512 20.32 116.512 16.264C116.512 12.112 114.88 9.832 112.096 9.832C109.336 9.832 107.704 12.112 107.704 16.264Z" fill="black" fill-opacity="0.4"/>
<path d="M65 17.8H120.568V19H65V17.8Z" fill="black" fill-opacity="0.4"/>
<rect x="131" y="2" width="58" height="28" rx="14" fill="#FF3333" fill-opacity="0.1"/>
<path d="M144.756 18.324V17.316H148.416V18.324H144.756ZM152.287 16.512H151.423V15.732L153.883 13.368H149.983V12.324H155.371V13.272L152.995 15.54C154.471 15.72 155.587 16.716 155.587 18.276C155.587 20.028 154.267 21.144 152.503 21.144C150.799 21.144 149.575 20.1 149.575 18.3H150.739C150.739 19.428 151.435 20.088 152.527 20.088C153.655 20.088 154.387 19.368 154.387 18.252C154.387 17.208 153.667 16.512 152.287 16.512ZM156.623 16.668C156.623 13.98 158.015 12.156 160.199 12.156C162.371 12.156 163.763 13.98 163.763 16.668C163.763 19.368 162.431 21.156 160.199 21.156C157.955 21.156 156.623 19.368 156.623 16.668ZM157.787 16.668C157.787 18.804 158.675 20.1 160.199 20.1C161.723 20.1 162.599 18.804 162.599 16.668C162.599 14.508 161.723 13.212 160.199 13.212C158.675 13.212 157.787 14.508 157.787 16.668ZM169.239 14.376C169.239 15.66 168.327 16.584 167.043 16.584C165.771 16.584 164.859 15.66 164.859 14.376C164.859 13.08 165.771 12.156 167.043 12.156C168.327 12.156 169.239 13.08 169.239 14.376ZM173.811 12.336L167.223 21H166.071L172.659 12.336H173.811ZM168.315 14.376C168.315 13.596 167.799 13.056 167.043 13.056C166.299 13.056 165.783 13.596 165.783 14.376C165.783 15.144 166.299 15.684 167.043 15.684C167.787 15.684 168.315 15.144 168.315 14.376ZM175.047 18.948C175.047 20.232 174.123 21.156 172.851 21.156C171.579 21.156 170.655 20.232 170.655 18.948C170.655 17.652 171.579 16.74 172.851 16.74C174.123 16.74 175.047 17.652 175.047 18.948ZM174.111 18.948C174.111 18.168 173.607 17.628 172.851 17.628C172.107 17.628 171.591 18.168 171.591 18.948C171.591 19.716 172.107 20.256 172.851 20.256C173.595 20.256 174.111 19.716 174.111 18.948Z" fill="#FF3333"/>
</svg>
