<svg width="200" height="32" viewBox="0 0 200 32" fill="none" xmlns="http://www.w3.org/2000/svg">
<path d="M6.24 27.28V25.288C2.904 25.048 0.768 23.104 0.696 20.176H3.768C3.792 21.544 4.68 22.408 6.24 22.6V17.488L5.472 17.32C2.448 16.672 0.936 14.992 0.936 12.352C0.936 9.544 3.048 7.528 6.24 7.192V5.152H8.088V7.192C11.112 7.504 12.984 9.4 13.08 12.28H10.104C10.056 10.984 9.336 10.144 8.088 9.88V15.04L8.904 15.232C11.976 15.904 13.368 17.392 13.368 19.936C13.368 22.864 11.304 24.88 8.088 25.24V27.28H6.24ZM6.144 14.608L6.24 14.632V9.856C4.8 10.096 3.936 10.96 3.936 12.256C3.936 13.528 4.608 14.272 6.144 14.608ZM8.256 17.92L8.088 17.872V22.552C9.528 22.264 10.392 21.424 10.392 20.2C10.392 18.976 9.696 18.232 8.256 17.92ZM27.4751 24.976L15.3071 25V22.696L21.0431 17.848C23.4191 15.832 24.2111 14.68 24.2111 13C24.2111 11.008 23.1311 9.88 21.2831 9.88C19.3631 9.88 18.1631 11.224 18.1391 13.48H15.0911C15.1151 9.64 17.5631 7.144 21.2831 7.144C25.0271 7.144 27.3551 9.28 27.3551 12.832C27.3551 15.28 26.0111 17.128 23.3471 19.408L20.1791 22.12H27.4751V24.976ZM42.6941 21.664H40.5581V25H37.6541V21.664H28.7501V18.976L36.6941 7.456H40.5581V18.976H42.6941V21.664ZM32.0141 18.976H37.6541V10.768L32.0141 18.976ZM44.6258 16.264C44.6258 10.816 47.5538 7.12 52.0418 7.12C56.5298 7.12 59.4818 10.816 59.4818 16.264C59.4818 21.688 56.6978 25.312 52.0418 25.312C47.3858 25.312 44.6258 21.688 44.6258 16.264ZM47.6498 16.264C47.6498 20.32 49.2818 22.6 52.0418 22.6C54.8258 22.6 56.4578 20.32 56.4578 16.264C56.4578 12.112 54.8258 9.832 52.0418 9.832C49.2818 9.832 47.6498 12.112 47.6498 16.264Z" fill="black"/>
<path d="M77.24 27.28V25.288C73.904 25.048 71.768 23.104 71.696 20.176H74.768C74.792 21.544 75.68 22.408 77.24 22.6V17.488L76.472 17.32C73.448 16.672 71.936 14.992 71.936 12.352C71.936 9.544 74.048 7.528 77.24 7.192V5.152H79.088V7.192C82.112 7.504 83.984 9.4 84.08 12.28H81.104C81.056 10.984 80.336 10.144 79.088 9.88V15.04L79.904 15.232C82.976 15.904 84.368 17.392 84.368 19.936C84.368 22.864 82.304 24.88 79.088 25.24V27.28H77.24ZM77.144 14.608L77.24 14.632V9.856C75.8 10.096 74.936 10.96 74.936 12.256C74.936 13.528 75.608 14.272 77.144 14.608ZM79.256 17.92L79.088 17.872V22.552C80.528 22.264 81.392 21.424 81.392 20.2C81.392 18.976 80.696 18.232 79.256 17.92ZM98.4751 24.976L86.3071 25V22.696L92.0431 17.848C94.4191 15.832 95.2111 14.68 95.2111 13C95.2111 11.008 94.1311 9.88 92.2831 9.88C90.3631 9.88 89.1631 11.224 89.1391 13.48H86.0911C86.1151 9.64 88.5631 7.144 92.2831 7.144C96.0271 7.144 98.3551 9.28 98.3551 12.832C98.3551 15.28 97.0111 17.128 94.3471 19.408L91.1791 22.12H98.4751V24.976ZM102.864 12.616L106.656 7.456H110.16L105.96 13.048C106.392 12.928 106.848 12.856 107.28 12.856C110.904 12.856 113.352 15.4 113.352 18.952C113.352 22.696 110.568 25.312 106.824 25.312C103.032 25.312 100.2 22.528 100.2 18.928C100.2 16.816 100.896 15.28 102.864 12.616ZM103.344 18.952C103.344 21.088 104.76 22.576 106.824 22.576C108.816 22.576 110.256 21.088 110.256 18.952C110.256 16.84 108.84 15.376 106.824 15.376C104.736 15.376 103.344 16.84 103.344 18.952ZM115.251 16.264C115.251 10.816 118.179 7.12 122.667 7.12C127.155 7.12 130.107 10.816 130.107 16.264C130.107 21.688 127.323 25.312 122.667 25.312C118.011 25.312 115.251 21.688 115.251 16.264ZM118.275 16.264C118.275 20.32 119.907 22.6 122.667 22.6C125.451 22.6 127.083 20.32 127.083 16.264C127.083 12.112 125.451 9.832 122.667 9.832C119.907 9.832 118.275 12.112 118.275 16.264Z" fill="black" fill-opacity="0.4"/>
<path d="M71 17.8H131.139V19H71V17.8Z" fill="black" fill-opacity="0.4"/>
<rect x="142" y="2" width="58" height="28" rx="14" fill="#FF3333" fill-opacity="0.1"/>
<path d="M156.256 18.324V17.316H159.916V18.324H156.256ZM166.373 20.988L160.517 21V20.1L163.313 17.688C164.717 16.476 165.113 15.888 165.113 14.964C165.113 13.872 164.489 13.224 163.445 13.224C162.377 13.224 161.681 14.004 161.657 15.24H160.481C160.517 13.38 161.693 12.168 163.457 12.168C165.197 12.168 166.313 13.224 166.313 14.892C166.313 16.128 165.701 17.004 164.165 18.336L162.365 19.896H166.373V20.988ZM167.455 16.668C167.455 13.98 168.847 12.156 171.031 12.156C173.203 12.156 174.595 13.98 174.595 16.668C174.595 19.368 173.263 21.156 171.031 21.156C168.787 21.156 167.455 19.368 167.455 16.668ZM168.619 16.668C168.619 18.804 169.507 20.1 171.031 20.1C172.555 20.1 173.431 18.804 173.431 16.668C173.431 14.508 172.555 13.212 171.031 13.212C169.507 13.212 168.619 14.508 168.619 16.668ZM180.072 14.376C180.072 15.66 179.16 16.584 177.876 16.584C176.604 16.584 175.692 15.66 175.692 14.376C175.692 13.08 176.604 12.156 177.876 12.156C179.16 12.156 180.072 13.08 180.072 14.376ZM184.644 12.336L178.056 21H176.904L183.492 12.336H184.644ZM179.148 14.376C179.148 13.596 178.632 13.056 177.876 13.056C177.132 13.056 176.616 13.596 176.616 14.376C176.616 15.144 177.132 15.684 177.876 15.684C178.62 15.684 179.148 15.144 179.148 14.376ZM185.88 18.948C185.88 20.232 184.956 21.156 183.684 21.156C182.412 21.156 181.488 20.232 181.488 18.948C181.488 17.652 182.412 16.74 183.684 16.74C184.956 16.74 185.88 17.652 185.88 18.948ZM184.944 18.948C184.944 18.168 184.44 17.628 183.684 17.628C182.94 17.628 182.424 18.168 182.424 18.948C182.424 19.716 182.94 20.256 183.684 20.256C184.428 20.256 184.944 19.716 184.944 18.948Z" fill="#FF3333"/>
</svg>
