<svg width="193" height="25" viewBox="0 0 193 25" fill="none" xmlns="http://www.w3.org/2000/svg">
<path d="M12.3562 0L15.8569 7.53796L24.1077 8.53794L18.0204 14.1966L19.619 22.3526L12.3562 18.3119L5.09341 22.3526L6.69201 14.1966L0.604756 8.53794L8.85555 7.53796L12.3562 0Z" fill="#FFC633"/>
<path d="M44.1682 0L47.6689 7.53796L55.9197 8.53794L49.8324 14.1966L51.431 22.3526L44.1682 18.3119L36.9054 22.3526L38.504 14.1966L32.4168 8.53794L40.6676 7.53796L44.1682 0Z" fill="#FFC633"/>
<path d="M75.9805 0L79.4812 7.53796L87.7319 8.53794L81.6447 14.1966L83.2433 22.3526L75.9805 18.3119L68.7177 22.3526L70.3163 14.1966L64.229 8.53794L72.4798 7.53796L75.9805 0Z" fill="#FFC633"/>
<path d="M107.792 0L111.293 7.53796L119.544 8.53794L113.457 14.1966L115.055 22.3526L107.792 18.3119L100.53 22.3526L102.128 14.1966L96.041 8.53794L104.292 7.53796L107.792 0Z" fill="#FFC633"/>
<path d="M131.737 22.3526L139 18.3119V0L135.499 7.53796L127.249 8.53793L133.336 14.1966L131.737 22.3526Z" fill="#FFC633"/>
<path d="M164.12 15.9242H162.776V18.3562H161.656V15.9242H155.64V14.9002L161.24 6.9002H162.776V14.9002H164.12V15.9242ZM156.888 14.9002H161.656V8.0842L156.888 14.9002ZM166.705 18.5322C166.161 18.5322 165.697 18.0842 165.697 17.5562C165.697 17.0122 166.161 16.5482 166.705 16.5482C167.249 16.5482 167.713 17.0122 167.713 17.5562C167.713 18.0842 167.249 18.5322 166.705 18.5322ZM173.015 18.5482C170.711 18.5482 169.239 17.1082 169.239 14.8522H170.391C170.391 16.5002 171.399 17.4922 173.031 17.4922C174.759 17.4922 175.879 16.3402 175.879 14.6442C175.879 13.0442 174.839 11.7802 173.031 11.7802C171.975 11.7802 171.015 12.2602 170.391 12.9482L169.479 12.6602L170.855 6.9002H176.391V7.9562H171.687L170.823 11.5562C171.463 11.0442 172.295 10.7562 173.191 10.7562C175.575 10.7562 177.047 12.4682 177.047 14.6122C177.047 16.9162 175.415 18.5482 173.015 18.5482ZM178.791 18.3562H177.703L182.167 6.9002H183.287L178.791 18.3562Z" fill="black"/>
<path d="M187.921 18.5482C185.617 18.5482 184.145 17.1082 184.145 14.8522H185.297C185.297 16.5002 186.305 17.4922 187.937 17.4922C189.665 17.4922 190.785 16.3402 190.785 14.6442C190.785 13.0442 189.745 11.7802 187.937 11.7802C186.881 11.7802 185.921 12.2602 185.297 12.9482L184.385 12.6602L185.761 6.9002H191.297V7.9562H186.593L185.729 11.5562C186.369 11.0442 187.201 10.7562 188.097 10.7562C190.481 10.7562 191.953 12.4682 191.953 14.6122C191.953 16.9162 190.321 18.5482 187.921 18.5482Z" fill="black" fill-opacity="0.6"/>
</svg>
