<svg width="138" height="19" viewBox="0 0 138 19" fill="none" xmlns="http://www.w3.org/2000/svg">
<path d="M9.24494 0.255127L11.8641 5.89504L18.0374 6.64322L13.4829 10.8771L14.679 16.9794L9.24494 13.9561L3.8109 16.9794L5.00697 10.8771L0.452479 6.64322L6.62573 5.89504L9.24494 0.255127Z" fill="#FFC633"/>
<path d="M33.0469 0.255127L35.6661 5.89504L41.8394 6.64322L37.2849 10.8771L38.481 16.9794L33.0469 13.9561L27.6129 16.9794L28.809 10.8771L24.2545 6.64322L30.4277 5.89504L33.0469 0.255127Z" fill="#FFC633"/>
<path d="M56.8487 0.255127L59.4679 5.89504L65.6412 6.64322L61.0867 10.8771L62.2827 16.9794L56.8487 13.9561L51.4147 16.9794L52.6107 10.8771L48.0562 6.64322L54.2295 5.89504L56.8487 0.255127Z" fill="#FFC633"/>
<path d="M80.6507 0.255127L83.2699 5.89504L89.4432 6.64322L84.8887 10.8771L86.0847 16.9794L80.6507 13.9561L75.2167 16.9794L76.4127 10.8771L71.8582 6.64322L78.0315 5.89504L80.6507 0.255127Z" fill="#FFC633"/>
<path d="M110.876 12.872H109.7V15H108.72V12.872H103.456V11.976L108.356 4.976H109.7V11.976H110.876V12.872ZM104.548 11.976H108.72V6.012L104.548 11.976ZM113.507 15.154C113.031 15.154 112.625 14.762 112.625 14.3C112.625 13.824 113.031 13.418 113.507 13.418C113.983 13.418 114.389 13.824 114.389 14.3C114.389 14.762 113.983 15.154 113.507 15.154ZM115.464 9.988C115.464 6.88 116.99 4.78 119.482 4.78C121.96 4.78 123.486 6.88 123.486 9.988C123.486 13.11 121.988 15.182 119.482 15.182C116.962 15.182 115.464 13.11 115.464 9.988ZM116.458 9.988C116.458 12.592 117.564 14.272 119.482 14.272C121.4 14.272 122.506 12.592 122.506 9.988C122.506 7.37 121.4 5.704 119.482 5.704C117.564 5.704 116.458 7.37 116.458 9.988ZM124.998 15H124.046L127.952 4.976H128.932L124.998 15Z" fill="black"/>
<path d="M132.987 15.168C130.971 15.168 129.683 13.908 129.683 11.934H130.691C130.691 13.376 131.573 14.244 133.001 14.244C134.513 14.244 135.493 13.236 135.493 11.752C135.493 10.352 134.583 9.246 133.001 9.246C132.077 9.246 131.237 9.666 130.691 10.268L129.893 10.016L131.097 4.976H135.941V5.9H131.825L131.069 9.05C131.629 8.602 132.357 8.35 133.141 8.35C135.227 8.35 136.515 9.848 136.515 11.724C136.515 13.74 135.087 15.168 132.987 15.168Z" fill="black" fill-opacity="0.6"/>
</svg>
