<svg width="354" height="48" viewBox="0 0 354 48" fill="none" xmlns="http://www.w3.org/2000/svg">
<rect width="48" height="48" rx="24" fill="#F0F0F0"/>
<path d="M25.125 23.625V32.25C25.125 32.5484 25.0065 32.8345 24.7955 33.0455C24.5845 33.2565 24.2984 33.375 24 33.375C23.7016 33.375 23.4155 33.2565 23.2045 33.0455C22.9935 32.8345 22.875 32.5484 22.875 32.25V23.625C22.875 23.3266 22.9935 23.0405 23.2045 22.8295C23.4155 22.6185 23.7016 22.5 24 22.5C24.2984 22.5 24.5845 22.6185 24.7955 22.8295C25.0065 23.0405 25.125 23.3266 25.125 23.625ZM30.75 30C30.4516 30 30.1655 30.1185 29.9545 30.3295C29.7435 30.5405 29.625 30.8266 29.625 31.125V32.25C29.625 32.5484 29.7435 32.8345 29.9545 33.0455C30.1655 33.2565 30.4516 33.375 30.75 33.375C31.0484 33.375 31.3345 33.2565 31.5455 33.0455C31.7565 32.8345 31.875 32.5484 31.875 32.25V31.125C31.875 30.8266 31.7565 30.5405 31.5455 30.3295C31.3345 30.1185 31.0484 30 30.75 30ZM33 26.25H31.875V15.75C31.875 15.4516 31.7565 15.1655 31.5455 14.9545C31.3345 14.7435 31.0484 14.625 30.75 14.625C30.4516 14.625 30.1655 14.7435 29.9545 14.9545C29.7435 15.1655 29.625 15.4516 29.625 15.75V26.25H28.5C28.2016 26.25 27.9155 26.3685 27.7045 26.5795C27.4935 26.7905 27.375 27.0766 27.375 27.375C27.375 27.6734 27.4935 27.9595 27.7045 28.1705C27.9155 28.3815 28.2016 28.5 28.5 28.5H33C33.2984 28.5 33.5845 28.3815 33.7955 28.1705C34.0065 27.9595 34.125 27.6734 34.125 27.375C34.125 27.0766 34.0065 26.7905 33.7955 26.5795C33.5845 26.3685 33.2984 26.25 33 26.25ZM17.25 27C16.9516 27 16.6655 27.1185 16.4545 27.3295C16.2435 27.5405 16.125 27.8266 16.125 28.125V32.25C16.125 32.5484 16.2435 32.8345 16.4545 33.0455C16.6655 33.2565 16.9516 33.375 17.25 33.375C17.5484 33.375 17.8345 33.2565 18.0455 33.0455C18.2565 32.8345 18.375 32.5484 18.375 32.25V28.125C18.375 27.8266 18.2565 27.5405 18.0455 27.3295C17.8345 27.1185 17.5484 27 17.25 27ZM19.5 23.25H18.375V15.75C18.375 15.4516 18.2565 15.1655 18.0455 14.9545C17.8345 14.7435 17.5484 14.625 17.25 14.625C16.9516 14.625 16.6655 14.7435 16.4545 14.9545C16.2435 15.1655 16.125 15.4516 16.125 15.75V23.25H15C14.7016 23.25 14.4155 23.3685 14.2045 23.5795C13.9935 23.7905 13.875 24.0766 13.875 24.375C13.875 24.6734 13.9935 24.9595 14.2045 25.1705C14.4155 25.3815 14.7016 25.5 15 25.5H19.5C19.7984 25.5 20.0845 25.3815 20.2955 25.1705C20.5065 24.9595 20.625 24.6734 20.625 24.375C20.625 24.0766 20.5065 23.7905 20.2955 23.5795C20.0845 23.3685 19.7984 23.25 19.5 23.25ZM26.25 18.75H25.125V15.75C25.125 15.4516 25.0065 15.1655 24.7955 14.9545C24.5845 14.7435 24.2984 14.625 24 14.625C23.7016 14.625 23.4155 14.7435 23.2045 14.9545C22.9935 15.1655 22.875 15.4516 22.875 15.75V18.75H21.75C21.4516 18.75 21.1655 18.8685 20.9545 19.0795C20.7435 19.2905 20.625 19.5766 20.625 19.875C20.625 20.1734 20.7435 20.4595 20.9545 20.6705C21.1655 20.8815 21.4516 21 21.75 21H26.25C26.5484 21 26.8345 20.8815 27.0455 20.6705C27.2565 20.4595 27.375 20.1734 27.375 19.875C27.375 19.5766 27.2565 19.2905 27.0455 19.0795C26.8345 18.8685 26.5484 18.75 26.25 18.75Z" fill="black"/>
<rect x="58" width="120" height="48" rx="24" fill="#F0F0F0"/>
<path d="M80.912 18.432V28.544H86V30H79.344V18.432H80.912ZM89.7354 30.192C88.0554 30.192 87.0634 29.248 87.0634 27.824C87.0634 26.384 88.1354 25.488 89.9754 25.344L92.4394 25.152V24.928C92.4394 23.616 91.6554 23.152 90.5994 23.152C89.3354 23.152 88.6154 23.712 88.6154 24.656H87.3034C87.3034 23.024 88.6474 21.952 90.6634 21.952C92.5994 21.952 93.9114 22.976 93.9114 25.088V30H92.6314L92.4714 28.736C92.0714 29.632 90.9994 30.192 89.7354 30.192ZM90.1674 29.024C91.5914 29.024 92.4554 28.096 92.4554 26.624V26.208L90.4554 26.368C89.1274 26.496 88.5834 27.008 88.5834 27.776C88.5834 28.608 89.1914 29.024 90.1674 29.024ZM98.0773 30H96.5733V23.44H95.0373V22.176H96.5733V19.728H98.0773V22.176H99.6133V23.44H98.0773V30ZM104.261 30.192C101.957 30.192 100.373 28.528 100.373 26.096C100.373 23.648 101.925 21.952 104.197 21.952C106.421 21.952 107.877 23.488 107.877 25.808V26.368L101.829 26.384C101.941 28.032 102.805 28.944 104.293 28.944C105.461 28.944 106.229 28.464 106.485 27.568H107.893C107.509 29.248 106.197 30.192 104.261 30.192ZM104.197 23.216C102.885 23.216 102.053 24 101.861 25.376H106.373C106.373 24.08 105.525 23.216 104.197 23.216ZM108.917 27.728H110.357C110.357 28.528 110.965 29.008 111.957 29.008C113.013 29.008 113.621 28.576 113.621 27.856C113.621 27.328 113.365 27.008 112.549 26.8L111.173 26.48C109.781 26.144 109.125 25.456 109.125 24.304C109.125 22.864 110.341 21.952 112.069 21.952C113.781 21.952 114.901 22.912 114.933 24.4H113.493C113.461 23.616 112.933 23.12 112.021 23.12C111.077 23.12 110.549 23.536 110.549 24.256C110.549 24.784 110.933 25.136 111.701 25.328L113.077 25.664C114.405 25.984 115.061 26.592 115.061 27.76C115.061 29.248 113.781 30.192 111.925 30.192C110.085 30.192 108.917 29.216 108.917 27.728ZM118.937 30H117.433V23.44H115.897V22.176H117.433V19.728H118.937V22.176H120.473V23.44H118.937V30Z" fill="black"/>
<path d="M155.531 22.5306L150.531 27.5306C150.461 27.6005 150.378 27.656 150.287 27.6939C150.196 27.7317 150.098 27.7512 149.999 27.7512C149.901 27.7512 149.803 27.7317 149.712 27.6939C149.621 27.656 149.538 27.6005 149.468 27.5306L144.468 22.5306C144.327 22.3897 144.248 22.1986 144.248 21.9994C144.248 21.8001 144.327 21.609 144.468 21.4681C144.609 21.3272 144.8 21.2481 144.999 21.2481C145.199 21.2481 145.39 21.3272 145.531 21.4681L150 25.9375L154.469 21.4675C154.61 21.3266 154.801 21.2474 155.001 21.2474C155.2 21.2474 155.391 21.3266 155.532 21.4675C155.673 21.6084 155.752 21.7995 155.752 21.9987C155.752 22.198 155.673 22.3891 155.532 22.53L155.531 22.5306Z" fill="black"/>
<rect x="188" width="166" height="48" rx="24" fill="black"/>
<path d="M221.18 30L217.74 18.432H219.372L221.484 25.504C221.644 26.112 221.804 26.72 221.964 27.6C222.156 26.672 222.332 26.112 222.508 25.504L224.7 18.432H226.396L228.572 25.504C228.764 26.128 228.924 26.736 229.1 27.6C229.292 26.624 229.452 26.032 229.612 25.52L231.74 18.432H233.34L229.852 30H228.348L225.548 20.848L222.716 30H221.18ZM238.521 22.112V23.488H237.849C236.425 23.488 235.545 24.352 235.545 25.856V30H234.041V22.192H235.449L235.545 23.376C235.865 22.56 236.649 22.016 237.721 22.016C237.993 22.016 238.217 22.048 238.521 22.112ZM240.668 20.32C240.124 20.32 239.676 19.872 239.676 19.328C239.676 18.768 240.124 18.336 240.668 18.336C241.212 18.336 241.66 18.768 241.66 19.328C241.66 19.872 241.212 20.32 240.668 20.32ZM239.932 30V22.176H241.436V30H239.932ZM245.827 30H244.323V23.44H242.787V22.176H244.323V19.728H245.827V22.176H247.363V23.44H245.827V30ZM252.011 30.192C249.707 30.192 248.123 28.528 248.123 26.096C248.123 23.648 249.675 21.952 251.947 21.952C254.171 21.952 255.627 23.488 255.627 25.808V26.368L249.579 26.384C249.691 28.032 250.555 28.944 252.043 28.944C253.211 28.944 253.979 28.464 254.235 27.568H255.643C255.259 29.248 253.947 30.192 252.011 30.192ZM251.947 23.216C250.635 23.216 249.803 24 249.611 25.376H254.123C254.123 24.08 253.275 23.216 251.947 23.216ZM263.97 30.192C262.29 30.192 261.298 29.248 261.298 27.824C261.298 26.384 262.37 25.488 264.21 25.344L266.674 25.152V24.928C266.674 23.616 265.89 23.152 264.834 23.152C263.57 23.152 262.85 23.712 262.85 24.656H261.538C261.538 23.024 262.882 21.952 264.898 21.952C266.834 21.952 268.146 22.976 268.146 25.088V30H266.866L266.706 28.736C266.306 29.632 265.234 30.192 263.97 30.192ZM264.402 29.024C265.826 29.024 266.69 28.096 266.69 26.624V26.208L264.69 26.368C263.362 26.496 262.818 27.008 262.818 27.776C262.818 28.608 263.426 29.024 264.402 29.024ZM276.428 30H274.86V18.432H279.228C281.708 18.432 283.18 19.744 283.18 21.904C283.18 23.504 282.38 24.656 280.94 25.12L283.292 30H281.548L279.388 25.424H276.428V30ZM276.428 19.84V24.032H279.244C280.7 24.032 281.532 23.248 281.532 21.92C281.532 20.576 280.668 19.84 279.228 19.84H276.428ZM287.886 30.192C285.582 30.192 283.998 28.528 283.998 26.096C283.998 23.648 285.55 21.952 287.822 21.952C290.046 21.952 291.502 23.488 291.502 25.808V26.368L285.454 26.384C285.566 28.032 286.43 28.944 287.918 28.944C289.086 28.944 289.854 28.464 290.11 27.568H291.518C291.134 29.248 289.822 30.192 287.886 30.192ZM287.822 23.216C286.51 23.216 285.678 24 285.486 25.376H289.998C289.998 24.08 289.15 23.216 287.822 23.216ZM295.108 30L291.956 22.176H293.556L295.268 26.544C295.54 27.28 295.764 27.936 295.892 28.416C296.02 27.904 296.276 27.232 296.548 26.544L298.292 22.176H299.86L296.596 30H295.108ZM301.793 20.32C301.249 20.32 300.801 19.872 300.801 19.328C300.801 18.768 301.249 18.336 301.793 18.336C302.337 18.336 302.785 18.768 302.785 19.328C302.785 19.872 302.337 20.32 301.793 20.32ZM301.057 30V22.176H302.561V30H301.057ZM308.12 30.192C305.816 30.192 304.232 28.528 304.232 26.096C304.232 23.648 305.784 21.952 308.056 21.952C310.28 21.952 311.736 23.488 311.736 25.808V26.368L305.688 26.384C305.8 28.032 306.664 28.944 308.152 28.944C309.32 28.944 310.088 28.464 310.344 27.568H311.752C311.368 29.248 310.056 30.192 308.12 30.192ZM308.056 23.216C306.744 23.216 305.912 24 305.72 25.376H310.232C310.232 24.08 309.384 23.216 308.056 23.216ZM314.831 30L312.271 22.176H313.823L315.119 26.24C315.295 26.816 315.455 27.408 315.599 28.096C315.727 27.408 315.935 26.752 316.111 26.24L317.423 22.176H318.959L320.255 26.24C320.383 26.624 320.639 27.536 320.767 28.096C320.895 27.472 321.039 26.928 321.263 26.24L322.575 22.176H324.143L321.47 30H320.047L318.687 25.808C318.431 25.024 318.271 24.416 318.191 23.984C318.111 24.368 317.967 24.88 317.679 25.824L316.319 30H314.831Z" fill="white"/>
</svg>
