<svg width="127" height="19" viewBox="0 0 127 19" fill="none" xmlns="http://www.w3.org/2000/svg">
<path d="M9.24494 0.255127L11.8641 5.89504L18.0374 6.64322L13.4829 10.8771L14.679 16.9794L9.24494 13.9561L3.8109 16.9794L5.00697 10.8771L0.452479 6.64322L6.62573 5.89504L9.24494 0.255127Z" fill="#FFC633"/>
<path d="M33.0469 0.255127L35.6661 5.89504L41.8394 6.64322L37.2849 10.8771L38.481 16.9794L33.0469 13.9561L27.6129 16.9794L28.809 10.8771L24.2545 6.64322L30.4277 5.89504L33.0469 0.255127Z" fill="#FFC633"/>
<path d="M56.8487 0.255127L59.4679 5.89504L65.6412 6.64322L61.0867 10.8771L62.2827 16.9794L56.8487 13.9561L51.4147 16.9794L52.6107 10.8771L48.0562 6.64322L54.2295 5.89504L56.8487 0.255127Z" fill="#FFC633"/>
<path d="M74.7642 16.9794L80.1982 13.9561V0.255127L77.579 5.89504L71.4058 6.64322L75.9603 10.8771L74.7642 16.9794Z" fill="#FFC633"/>
<path d="M96.74 9.624H95.942V8.924L99.036 5.872H94.234V4.976H100.31V5.788L97.314 8.77C99.19 8.868 100.534 10.058 100.534 11.878C100.534 13.866 99.078 15.168 97.048 15.168C95.074 15.168 93.744 13.95 93.744 11.948H94.738C94.738 13.39 95.634 14.258 97.048 14.258C98.546 14.258 99.512 13.306 99.512 11.85C99.512 10.478 98.532 9.624 96.74 9.624ZM102.989 15.154C102.513 15.154 102.107 14.762 102.107 14.3C102.107 13.824 102.513 13.418 102.989 13.418C103.465 13.418 103.871 13.824 103.871 14.3C103.871 14.762 103.465 15.154 102.989 15.154ZM108.51 15.168C106.494 15.168 105.206 13.908 105.206 11.934H106.214C106.214 13.376 107.096 14.244 108.524 14.244C110.036 14.244 111.016 13.236 111.016 11.752C111.016 10.352 110.106 9.246 108.524 9.246C107.6 9.246 106.76 9.666 106.214 10.268L105.416 10.016L106.62 4.976H111.464V5.9H107.348L106.592 9.05C107.152 8.602 107.88 8.35 108.664 8.35C110.75 8.35 112.038 9.848 112.038 11.724C112.038 13.74 110.61 15.168 108.51 15.168ZM113.564 15H112.612L116.518 4.976H117.498L113.564 15Z" fill="black"/>
<path d="M121.553 15.168C119.537 15.168 118.249 13.908 118.249 11.934H119.257C119.257 13.376 120.139 14.244 121.567 14.244C123.079 14.244 124.059 13.236 124.059 11.752C124.059 10.352 123.149 9.246 121.567 9.246C120.643 9.246 119.803 9.666 119.257 10.268L118.459 10.016L119.663 4.976H124.507V5.9H120.391L119.635 9.05C120.195 8.602 120.923 8.35 121.707 8.35C123.793 8.35 125.081 9.848 125.081 11.724C125.081 13.74 123.653 15.168 121.553 15.168Z" fill="black" fill-opacity="0.6"/>
</svg>
